# xmcd CD database file
#
# Track frame offsets:
#	150
#	40424
#	75341
#	95159
#	134439
#	156130
#	180675
#	206241
#	230729
#	272791
#	309436
#
# Disc length: 4418 seconds
#
# Revision: 0
# Processed by: cddbd v1.5.1PL0 Copyright (c) Steve Scherf et al.
# Submitted via: CDex 1.51
#
DISCID=9a11400b
DTITLE=Atlantic Jazz - Soul
DYEAR=1900
DGENRE=Jazz
TTITLE0=Eddie Harris and Les McCann - Compared To What
TTITLE1=Eddie Harris - Listen Here
TTITLE2=Hank Crawford - You're The One
TTITLE3=Herbie Mann - Comin' Home Baby
TTITLE4=Joe Zawinful - Money In The Pocket
TTITLE5=Johnny Griffin and Matthew Gee - Twist City
TTITLE6=Les McCann - With These Hands
TTITLE7=Nat Adderley - Jive Samba
TTITLE8=Ray Charles and Milt Jackson - How Long Blues
TTITLE9=Shirley Scott - Think
TTITLE10=Yusef Lateef - Russell and Eliot
EXTD=
EXTT0=
EXTT1=
EXTT2=
EXTT3=
EXTT4=
EXTT5=
EXTT6=
EXTT7=
EXTT8=
EXTT9=
EXTT10=
PLAYORDER=
